<?xml version="1.0" encoding="UTF-8" standalone="no"?>
<!DOCTYPE svg PUBLIC "-//W3C//DTD SVG 1.1//EN"
 "http://www.w3.org/Graphics/SVG/1.1/DTD/svg11.dtd">
<!-- Generated by graphviz version 2.38.0 (20140413.2041)
 -->
<!-- Title: G Pages: 1 -->
<svg width="1184pt" height="1679pt"
 viewBox="0.00 0.00 1184.42 1678.98" xmlns="http://www.w3.org/2000/svg" xmlns:xlink="http://www.w3.org/1999/xlink">
<g id="graph0" class="graph" transform="scale(1 1) rotate(0) translate(4 1674.98)">
<title>G</title>
<polygon fill="white" stroke="none" points="-4,4 -4,-1674.98 1180.42,-1674.98 1180.42,4 -4,4"/>
<!-- Start -->
<g id="node1" class="node"><title>Start</title>
<ellipse fill="none" stroke="black" cx="304.212" cy="-1652.98" rx="27.0966" ry="18"/>
<text text-anchor="middle" x="304.212" y="-1649.28" font-family="Times,serif" font-size="14.00">Start</text>
</g>
<!-- data/8004ea8a5ab03a26bbdcc9dd6c6f1933 -->
<g id="node2" class="node"><title>data/8004ea8a5ab03a26bbdcc9dd6c6f1933</title>
<ellipse fill="none" stroke="black" cx="304.212" cy="-1561.5" rx="177.468" ry="37.4533"/>
<text text-anchor="middle" x="304.212" y="-1572.8" font-family="Times,serif" font-size="14.00">data/8004ea8a5ab03a26bbdcc9dd6c6f1933</text>
<text text-anchor="middle" x="304.212" y="-1557.8" font-family="Times,serif" font-size="14.00">Network</text>
<text text-anchor="middle" x="304.212" y="-1542.8" font-family="Times,serif" font-size="14.00">AuvControl::SimpleMove_597:success</text>
</g>
<!-- Start&#45;&gt;data/8004ea8a5ab03a26bbdcc9dd6c6f1933 -->
<g id="edge16" class="edge"><title>Start&#45;&gt;data/8004ea8a5ab03a26bbdcc9dd6c6f1933</title>
<path fill="none" stroke="black" d="M304.212,-1634.72C304.212,-1627.42 304.212,-1618.52 304.212,-1609.49"/>
<polygon fill="black" stroke="black" points="307.712,-1609.33 304.212,-1599.33 300.712,-1609.33 307.712,-1609.33"/>
</g>
<!-- data/a2d43b9536b74d7500475acc396bcbb4 -->
<g id="node3" class="node"><title>data/a2d43b9536b74d7500475acc396bcbb4</title>
<ellipse fill="none" stroke="black" cx="410.212" cy="-1439.94" rx="183.281" ry="48.1667"/>
<text text-anchor="middle" x="410.212" y="-1458.74" font-family="Times,serif" font-size="14.00">data/a2d43b9536b74d7500475acc396bcbb4</text>
<text text-anchor="middle" x="410.212" y="-1443.74" font-family="Times,serif" font-size="14.00">Network</text>
<text text-anchor="middle" x="410.212" y="-1428.74" font-family="Times,serif" font-size="14.00">AuvControl::SimpleMove_597:success</text>
<text text-anchor="middle" x="410.212" y="-1413.74" font-family="Times,serif" font-size="14.00">Main::FindPipeWithLocalization_599:failed</text>
</g>
<!-- data/8004ea8a5ab03a26bbdcc9dd6c6f1933&#45;&gt;data/a2d43b9536b74d7500475acc396bcbb4 -->
<g id="edge14" class="edge"><title>data/8004ea8a5ab03a26bbdcc9dd6c6f1933&#45;&gt;data/a2d43b9536b74d7500475acc396bcbb4</title>
<path fill="none" stroke="black" d="M336.015,-1524.63C344.374,-1515.2 353.574,-1504.82 362.567,-1494.68"/>
<polygon fill="black" stroke="black" points="365.371,-1496.79 369.386,-1486.99 360.133,-1492.15 365.371,-1496.79"/>
</g>
<!-- data/8baa200e9606a50d3f54bc6f80fa0e8f -->
<g id="node9" class="node"><title>data/8baa200e9606a50d3f54bc6f80fa0e8f</title>
<ellipse fill="none" stroke="black" cx="488.212" cy="-265.103" rx="190.424" ry="111.946"/>
<text text-anchor="middle" x="488.212" y="-328.903" font-family="Times,serif" font-size="14.00">data/8baa200e9606a50d3f54bc6f80fa0e8f</text>
<text text-anchor="middle" x="488.212" y="-313.903" font-family="Times,serif" font-size="14.00">Network</text>
<text text-anchor="middle" x="488.212" y="-298.903" font-family="Times,serif" font-size="14.00">AuvControl::SimpleMove_597:success</text>
<text text-anchor="middle" x="488.212" y="-283.903" font-family="Times,serif" font-size="14.00">Main::FindPipeWithLocalization_599:failed</text>
<text text-anchor="middle" x="488.212" y="-268.903" font-family="Times,serif" font-size="14.00">AuvControl::SimplePosMove_605:success</text>
<text text-anchor="middle" x="488.212" y="-253.903" font-family="Times,serif" font-size="14.00">Wall::Follower_585:success</text>
<text text-anchor="middle" x="488.212" y="-238.903" font-family="Times,serif" font-size="14.00">Wall::Follower_620:success</text>
<text text-anchor="middle" x="488.212" y="-223.903" font-family="Times,serif" font-size="14.00">AuvControl::SimpleMove_623:success</text>
<text text-anchor="middle" x="488.212" y="-208.903" font-family="Times,serif" font-size="14.00">AuvControl::SimpleMove_626:success</text>
<text text-anchor="middle" x="488.212" y="-193.903" font-family="Times,serif" font-size="14.00">Main::FindPipeWithLocalization_599:success</text>
</g>
<!-- data/8004ea8a5ab03a26bbdcc9dd6c6f1933&#45;&gt;data/8baa200e9606a50d3f54bc6f80fa0e8f -->
<g id="edge15" class="edge"><title>data/8004ea8a5ab03a26bbdcc9dd6c6f1933&#45;&gt;data/8baa200e9606a50d3f54bc6f80fa0e8f</title>
<path fill="none" stroke="black" d="M249.824,-1525.58C237.466,-1515.02 225.769,-1502.36 218.212,-1488.02 178.666,-1413.01 199.212,-1382.97 199.212,-1298.17 199.212,-1298.17 199.212,-1298.17 199.212,-740.568 199.212,-588.909 208.241,-537.763 294.212,-412.825 309.349,-390.827 328.844,-370.745 349.622,-352.973"/>
<polygon fill="black" stroke="black" points="351.901,-355.63 357.329,-346.531 347.412,-350.259 351.901,-355.63"/>
</g>
<!-- data/02fc61fb3f585ef4696a775b7f1a2739 -->
<g id="node4" class="node"><title>data/02fc61fb3f585ef4696a775b7f1a2739</title>
<ellipse fill="none" stroke="black" cx="486.212" cy="-1297.17" rx="183.281" ry="58.8803"/>
<text text-anchor="middle" x="486.212" y="-1323.47" font-family="Times,serif" font-size="14.00">data/02fc61fb3f585ef4696a775b7f1a2739</text>
<text text-anchor="middle" x="486.212" y="-1308.47" font-family="Times,serif" font-size="14.00">Network</text>
<text text-anchor="middle" x="486.212" y="-1293.47" font-family="Times,serif" font-size="14.00">AuvControl::SimpleMove_597:success</text>
<text text-anchor="middle" x="486.212" y="-1278.47" font-family="Times,serif" font-size="14.00">Main::FindPipeWithLocalization_599:failed</text>
<text text-anchor="middle" x="486.212" y="-1263.47" font-family="Times,serif" font-size="14.00">AuvControl::SimplePosMove_605:success</text>
</g>
<!-- data/a2d43b9536b74d7500475acc396bcbb4&#45;&gt;data/02fc61fb3f585ef4696a775b7f1a2739 -->
<g id="edge7" class="edge"><title>data/a2d43b9536b74d7500475acc396bcbb4&#45;&gt;data/02fc61fb3f585ef4696a775b7f1a2739</title>
<path fill="none" stroke="black" d="M435.519,-1392.06C440.362,-1383.09 445.515,-1373.55 450.611,-1364.11"/>
<polygon fill="black" stroke="black" points="453.796,-1365.58 455.467,-1355.11 447.637,-1362.25 453.796,-1365.58"/>
</g>
<!-- data/0a3c5368d6c45ebfa880a78cdefdd330 -->
<g id="node5" class="node"><title>data/0a3c5368d6c45ebfa880a78cdefdd330</title>
<ellipse fill="none" stroke="black" cx="486.212" cy="-1133.18" rx="183.281" ry="69.0935"/>
<text text-anchor="middle" x="486.212" y="-1166.98" font-family="Times,serif" font-size="14.00">data/0a3c5368d6c45ebfa880a78cdefdd330</text>
<text text-anchor="middle" x="486.212" y="-1151.98" font-family="Times,serif" font-size="14.00">Network</text>
<text text-anchor="middle" x="486.212" y="-1136.98" font-family="Times,serif" font-size="14.00">AuvControl::SimpleMove_597:success</text>
<text text-anchor="middle" x="486.212" y="-1121.98" font-family="Times,serif" font-size="14.00">Main::FindPipeWithLocalization_599:failed</text>
<text text-anchor="middle" x="486.212" y="-1106.98" font-family="Times,serif" font-size="14.00">AuvControl::SimplePosMove_605:success</text>
<text text-anchor="middle" x="486.212" y="-1091.98" font-family="Times,serif" font-size="14.00">Wall::Follower_585:success</text>
</g>
<!-- data/02fc61fb3f585ef4696a775b7f1a2739&#45;&gt;data/0a3c5368d6c45ebfa880a78cdefdd330 -->
<g id="edge6" class="edge"><title>data/02fc61fb3f585ef4696a775b7f1a2739&#45;&gt;data/0a3c5368d6c45ebfa880a78cdefdd330</title>
<path fill="none" stroke="black" d="M486.212,-1238.14C486.212,-1229.86 486.212,-1221.22 486.212,-1212.62"/>
<polygon fill="black" stroke="black" points="489.712,-1212.57 486.212,-1202.57 482.712,-1212.57 489.712,-1212.57"/>
</g>
<!-- data/3e8ab004fbcbeb452579bfa715cf0bb9 -->
<g id="node6" class="node"><title>data/3e8ab004fbcbeb452579bfa715cf0bb9</title>
<ellipse fill="none" stroke="black" cx="486.212" cy="-947.98" rx="183.281" ry="79.8062"/>
<text text-anchor="middle" x="486.212" y="-989.28" font-family="Times,serif" font-size="14.00">data/3e8ab004fbcbeb452579bfa715cf0bb9</text>
<text text-anchor="middle" x="486.212" y="-974.28" font-family="Times,serif" font-size="14.00">Network</text>
<text text-anchor="middle" x="486.212" y="-959.28" font-family="Times,serif" font-size="14.00">AuvControl::SimpleMove_597:success</text>
<text text-anchor="middle" x="486.212" y="-944.28" font-family="Times,serif" font-size="14.00">Main::FindPipeWithLocalization_599:failed</text>
<text text-anchor="middle" x="486.212" y="-929.28" font-family="Times,serif" font-size="14.00">AuvControl::SimplePosMove_605:success</text>
<text text-anchor="middle" x="486.212" y="-914.28" font-family="Times,serif" font-size="14.00">Wall::Follower_585:success</text>
<text text-anchor="middle" x="486.212" y="-899.28" font-family="Times,serif" font-size="14.00">Wall::Follower_620:success</text>
</g>
<!-- data/0a3c5368d6c45ebfa880a78cdefdd330&#45;&gt;data/3e8ab004fbcbeb452579bfa715cf0bb9 -->
<g id="edge5" class="edge"><title>data/0a3c5368d6c45ebfa880a78cdefdd330&#45;&gt;data/3e8ab004fbcbeb452579bfa715cf0bb9</title>
<path fill="none" stroke="black" d="M486.212,-1063.7C486.212,-1055.38 486.212,-1046.78 486.212,-1038.2"/>
<polygon fill="black" stroke="black" points="489.712,-1038.17 486.212,-1028.17 482.712,-1038.17 489.712,-1038.17"/>
</g>
<!-- data/9528c0f61b006ded090c2abaf0ffc324 -->
<g id="node7" class="node"><title>data/9528c0f61b006ded090c2abaf0ffc324</title>
<ellipse fill="none" stroke="black" cx="486.212" cy="-741.568" rx="183.281" ry="90.5193"/>
<text text-anchor="middle" x="486.212" y="-790.368" font-family="Times,serif" font-size="14.00">data/9528c0f61b006ded090c2abaf0ffc324</text>
<text text-anchor="middle" x="486.212" y="-775.368" font-family="Times,serif" font-size="14.00">Network</text>
<text text-anchor="middle" x="486.212" y="-760.368" font-family="Times,serif" font-size="14.00">AuvControl::SimpleMove_597:success</text>
<text text-anchor="middle" x="486.212" y="-745.368" font-family="Times,serif" font-size="14.00">Main::FindPipeWithLocalization_599:failed</text>
<text text-anchor="middle" x="486.212" y="-730.368" font-family="Times,serif" font-size="14.00">AuvControl::SimplePosMove_605:success</text>
<text text-anchor="middle" x="486.212" y="-715.368" font-family="Times,serif" font-size="14.00">Wall::Follower_585:success</text>
<text text-anchor="middle" x="486.212" y="-700.368" font-family="Times,serif" font-size="14.00">Wall::Follower_620:success</text>
<text text-anchor="middle" x="486.212" y="-685.368" font-family="Times,serif" font-size="14.00">AuvControl::SimpleMove_623:success</text>
</g>
<!-- data/3e8ab004fbcbeb452579bfa715cf0bb9&#45;&gt;data/9528c0f61b006ded090c2abaf0ffc324 -->
<g id="edge4" class="edge"><title>data/3e8ab004fbcbeb452579bfa715cf0bb9&#45;&gt;data/9528c0f61b006ded090c2abaf0ffc324</title>
<path fill="none" stroke="black" d="M486.212,-867.949C486.212,-859.551 486.212,-850.933 486.212,-842.338"/>
<polygon fill="black" stroke="black" points="489.712,-842.273 486.212,-832.273 482.712,-842.273 489.712,-842.273"/>
</g>
<!-- data/b7bc08e440479ea228ea9c7cc7dd04e0 -->
<g id="node8" class="node"><title>data/b7bc08e440479ea228ea9c7cc7dd04e0</title>
<ellipse fill="none" stroke="black" cx="486.212" cy="-513.942" rx="183.281" ry="101.233"/>
<text text-anchor="middle" x="486.212" y="-570.242" font-family="Times,serif" font-size="14.00">data/b7bc08e440479ea228ea9c7cc7dd04e0</text>
<text text-anchor="middle" x="486.212" y="-555.242" font-family="Times,serif" font-size="14.00">Network</text>
<text text-anchor="middle" x="486.212" y="-540.242" font-family="Times,serif" font-size="14.00">AuvControl::SimpleMove_597:success</text>
<text text-anchor="middle" x="486.212" y="-525.242" font-family="Times,serif" font-size="14.00">Main::FindPipeWithLocalization_599:failed</text>
<text text-anchor="middle" x="486.212" y="-510.242" font-family="Times,serif" font-size="14.00">AuvControl::SimplePosMove_605:success</text>
<text text-anchor="middle" x="486.212" y="-495.242" font-family="Times,serif" font-size="14.00">Wall::Follower_585:success</text>
<text text-anchor="middle" x="486.212" y="-480.242" font-family="Times,serif" font-size="14.00">Wall::Follower_620:success</text>
<text text-anchor="middle" x="486.212" y="-465.242" font-family="Times,serif" font-size="14.00">AuvControl::SimpleMove_623:success</text>
<text text-anchor="middle" x="486.212" y="-450.242" font-family="Times,serif" font-size="14.00">AuvControl::SimpleMove_626:success</text>
</g>
<!-- data/9528c0f61b006ded090c2abaf0ffc324&#45;&gt;data/b7bc08e440479ea228ea9c7cc7dd04e0 -->
<g id="edge3" class="edge"><title>data/9528c0f61b006ded090c2abaf0ffc324&#45;&gt;data/b7bc08e440479ea228ea9c7cc7dd04e0</title>
<path fill="none" stroke="black" d="M486.212,-650.746C486.212,-642.355 486.212,-633.787 486.212,-625.238"/>
<polygon fill="black" stroke="black" points="489.712,-625.222 486.212,-615.222 482.712,-625.222 489.712,-625.222"/>
</g>
<!-- data/b7bc08e440479ea228ea9c7cc7dd04e0&#45;&gt;data/a2d43b9536b74d7500475acc396bcbb4 -->
<g id="edge1" class="edge"><title>data/b7bc08e440479ea228ea9c7cc7dd04e0&#45;&gt;data/a2d43b9536b74d7500475acc396bcbb4</title>
<path fill="none" stroke="black" d="M356.904,-585.723C332.915,-604.138 310.363,-625.981 294.212,-651.058 221.687,-763.662 237.212,-813.042 237.212,-946.98 237.212,-1134.18 237.212,-1134.18 237.212,-1134.18 237.212,-1235.91 236.733,-1271.92 294.212,-1355.86 302.823,-1368.43 313.995,-1379.76 325.999,-1389.72"/>
<polygon fill="black" stroke="black" points="323.982,-1392.58 333.99,-1396.06 328.334,-1387.1 323.982,-1392.58"/>
</g>
<!-- data/b7bc08e440479ea228ea9c7cc7dd04e0&#45;&gt;data/8baa200e9606a50d3f54bc6f80fa0e8f -->
<g id="edge2" class="edge"><title>data/b7bc08e440479ea228ea9c7cc7dd04e0&#45;&gt;data/8baa200e9606a50d3f54bc6f80fa0e8f</title>
<path fill="none" stroke="black" d="M487.025,-412.543C487.094,-404.101 487.163,-395.509 487.233,-386.935"/>
<polygon fill="black" stroke="black" points="490.733,-386.915 487.314,-376.887 483.733,-386.858 490.733,-386.915"/>
</g>
<!-- data/958d9d65800c726d3921b379fd82276d -->
<g id="node10" class="node"><title>data/958d9d65800c726d3921b379fd82276d</title>
<ellipse fill="none" stroke="black" cx="588.212" cy="-58.6899" rx="190.424" ry="58.8803"/>
<text text-anchor="middle" x="588.212" y="-84.9899" font-family="Times,serif" font-size="14.00">data/958d9d65800c726d3921b379fd82276d</text>
<text text-anchor="middle" x="588.212" y="-69.9899" font-family="Times,serif" font-size="14.00">Network</text>
<text text-anchor="middle" x="588.212" y="-54.9899" font-family="Times,serif" font-size="14.00">AuvControl::SimpleMove_597:success</text>
<text text-anchor="middle" x="588.212" y="-39.9899" font-family="Times,serif" font-size="14.00">Main::FindPipeWithLocalization_599:success</text>
<text text-anchor="middle" x="588.212" y="-24.9899" font-family="Times,serif" font-size="14.00">Pipeline::Follower_602:end_of_pipe</text>
</g>
<!-- data/8baa200e9606a50d3f54bc6f80fa0e8f&#45;&gt;data/958d9d65800c726d3921b379fd82276d -->
<g id="edge11" class="edge"><title>data/8baa200e9606a50d3f54bc6f80fa0e8f&#45;&gt;data/958d9d65800c726d3921b379fd82276d</title>
<path fill="none" stroke="black" d="M540.408,-157.406C545.629,-146.733 550.819,-136.126 555.747,-126.051"/>
<polygon fill="black" stroke="black" points="558.944,-127.482 560.194,-116.962 552.656,-124.406 558.944,-127.482"/>
</g>
<!-- data/fb3f7c911c4d28f56fb6106187c63989 -->
<g id="node11" class="node"><title>data/fb3f7c911c4d28f56fb6106187c63989</title>
<ellipse fill="none" stroke="black" cx="986.212" cy="-58.6899" rx="190.424" ry="58.8803"/>
<text text-anchor="middle" x="986.212" y="-84.9899" font-family="Times,serif" font-size="14.00">data/fb3f7c911c4d28f56fb6106187c63989</text>
<text text-anchor="middle" x="986.212" y="-69.9899" font-family="Times,serif" font-size="14.00">Network</text>
<text text-anchor="middle" x="986.212" y="-54.9899" font-family="Times,serif" font-size="14.00">AuvControl::SimpleMove_597:success</text>
<text text-anchor="middle" x="986.212" y="-39.9899" font-family="Times,serif" font-size="14.00">Main::FindPipeWithLocalization_599:success</text>
<text text-anchor="middle" x="986.212" y="-24.9899" font-family="Times,serif" font-size="14.00">Pipeline::Follower_602:failed</text>
</g>
<!-- data/8baa200e9606a50d3f54bc6f80fa0e8f&#45;&gt;data/fb3f7c911c4d28f56fb6106187c63989 -->
<g id="edge12" class="edge"><title>data/8baa200e9606a50d3f54bc6f80fa0e8f&#45;&gt;data/fb3f7c911c4d28f56fb6106187c63989</title>
<path fill="none" stroke="black" d="M643.393,-200.406C714.414,-171.254 797.362,-137.206 863.876,-109.905"/>
<polygon fill="black" stroke="black" points="865.227,-113.134 873.149,-106.098 862.569,-106.658 865.227,-113.134"/>
</g>
<!-- data/f551a7d91b55f1d1f980ce4fd1e41b5b -->
<g id="node12" class="node"><title>data/f551a7d91b55f1d1f980ce4fd1e41b5b</title>
<ellipse fill="none" stroke="black" cx="190.212" cy="-58.6899" rx="190.424" ry="58.8803"/>
<text text-anchor="middle" x="190.212" y="-84.9899" font-family="Times,serif" font-size="14.00">data/f551a7d91b55f1d1f980ce4fd1e41b5b</text>
<text text-anchor="middle" x="190.212" y="-69.9899" font-family="Times,serif" font-size="14.00">Network</text>
<text text-anchor="middle" x="190.212" y="-54.9899" font-family="Times,serif" font-size="14.00">AuvControl::SimpleMove_597:success</text>
<text text-anchor="middle" x="190.212" y="-39.9899" font-family="Times,serif" font-size="14.00">Main::FindPipeWithLocalization_599:success</text>
<text text-anchor="middle" x="190.212" y="-24.9899" font-family="Times,serif" font-size="14.00">Pipeline::Follower_602:success</text>
</g>
<!-- data/8baa200e9606a50d3f54bc6f80fa0e8f&#45;&gt;data/f551a7d91b55f1d1f980ce4fd1e41b5b -->
<g id="edge13" class="edge"><title>data/8baa200e9606a50d3f54bc6f80fa0e8f&#45;&gt;data/f551a7d91b55f1d1f980ce4fd1e41b5b</title>
<path fill="none" stroke="black" d="M365.283,-179.78C335.207,-159.149 303.668,-137.515 275.775,-118.382"/>
<polygon fill="black" stroke="black" points="277.468,-115.299 267.242,-112.528 273.508,-121.071 277.468,-115.299"/>
</g>
<!-- data/958d9d65800c726d3921b379fd82276d&#45;&gt;data/02fc61fb3f585ef4696a775b7f1a2739 -->
<g id="edge8" class="edge"><title>data/958d9d65800c726d3921b379fd82276d&#45;&gt;data/02fc61fb3f585ef4696a775b7f1a2739</title>
<path fill="none" stroke="black" d="M659.046,-113.427C670.313,-125.315 680.462,-138.772 687.212,-153.38 754.34,-298.648 706.212,-352.913 706.212,-512.942 706.212,-948.98 706.212,-948.98 706.212,-948.98 706.212,-1062.33 743.463,-1109.79 678.212,-1202.48 664.325,-1222.2 645.101,-1237.95 624.149,-1250.47"/>
<polygon fill="black" stroke="black" points="622.35,-1247.47 615.4,-1255.47 625.82,-1253.55 622.35,-1247.47"/>
</g>
<!-- data/fb3f7c911c4d28f56fb6106187c63989&#45;&gt;data/02fc61fb3f585ef4696a775b7f1a2739 -->
<g id="edge9" class="edge"><title>data/fb3f7c911c4d28f56fb6106187c63989&#45;&gt;data/02fc61fb3f585ef4696a775b7f1a2739</title>
<path fill="none" stroke="black" d="M969.133,-117.413C945.368,-202.969 905.212,-368.857 905.212,-512.942 905.212,-948.98 905.212,-948.98 905.212,-948.98 905.212,-1099.86 742.124,-1197.61 619.444,-1249.8"/>
<polygon fill="black" stroke="black" points="617.81,-1246.69 609.942,-1253.79 620.517,-1253.15 617.81,-1246.69"/>
</g>
<!-- data/f551a7d91b55f1d1f980ce4fd1e41b5b&#45;&gt;data/02fc61fb3f585ef4696a775b7f1a2739 -->
<g id="edge10" class="edge"><title>data/f551a7d91b55f1d1f980ce4fd1e41b5b&#45;&gt;data/02fc61fb3f585ef4696a775b7f1a2739</title>
<path fill="none" stroke="black" d="M192.18,-117.646C200.091,-337.553 232.178,-1112.53 294.212,-1202.48 307.815,-1222.2 326.779,-1237.94 347.532,-1250.44"/>
<polygon fill="black" stroke="black" points="345.789,-1253.47 356.203,-1255.43 349.279,-1247.41 345.789,-1253.47"/>
</g>
</g>
</svg>
